<mxfile host="app.diagrams.net" modified="2023-05-09T12:27:22.074Z" agent="Mozilla/5.0 (Macintosh; Intel Mac OS X 10_15_7) AppleWebKit/537.36 (KHTML, like Gecko) Chrome/112.0.0.0 Safari/537.36" etag="xkFCzxWca_iRjFQzphLB" version="21.2.6" type="device" pages="3">
  <diagram name="페이지-1" id="adUTxfzcb8qz8G_r2pGf">
    <mxGraphModel dx="1329" dy="673" grid="1" gridSize="10" guides="1" tooltips="1" connect="1" arrows="1" fold="1" page="1" pageScale="1" pageWidth="1169" pageHeight="827" math="0" shadow="0">
      <root>
        <mxCell id="0" />
        <mxCell id="1" parent="0" />
        <mxCell id="lyffUTx4l9poD90IlDFy-1" value="Object" style="text;html=1;strokeColor=none;fillColor=none;align=left;verticalAlign=middle;whiteSpace=wrap;rounded=0;fontSize=14;" vertex="1" parent="1">
          <mxGeometry x="240" y="120" width="80" height="20" as="geometry" />
        </mxCell>
        <mxCell id="lyffUTx4l9poD90IlDFy-2" value="AbstractMap" style="text;html=1;strokeColor=none;fillColor=none;align=left;verticalAlign=middle;whiteSpace=wrap;rounded=0;fontSize=14;" vertex="1" parent="1">
          <mxGeometry x="280" y="150" width="80" height="20" as="geometry" />
        </mxCell>
        <mxCell id="lyffUTx4l9poD90IlDFy-3" value="EnumMap" style="text;html=1;strokeColor=none;fillColor=none;align=left;verticalAlign=middle;whiteSpace=wrap;rounded=0;fontSize=14;" vertex="1" parent="1">
          <mxGeometry x="320" y="180" width="80" height="20" as="geometry" />
        </mxCell>
        <mxCell id="lyffUTx4l9poD90IlDFy-4" value="HashMap" style="text;html=1;strokeColor=none;fillColor=none;align=left;verticalAlign=middle;whiteSpace=wrap;rounded=0;fontSize=14;" vertex="1" parent="1">
          <mxGeometry x="320" y="210" width="80" height="20" as="geometry" />
        </mxCell>
        <mxCell id="lyffUTx4l9poD90IlDFy-5" value="LinkedHashMap" style="text;html=1;strokeColor=none;fillColor=none;align=left;verticalAlign=middle;whiteSpace=wrap;rounded=0;fontSize=14;" vertex="1" parent="1">
          <mxGeometry x="360" y="240" width="120" height="20" as="geometry" />
        </mxCell>
        <mxCell id="lyffUTx4l9poD90IlDFy-6" value="TreeMap" style="text;html=1;strokeColor=none;fillColor=none;align=left;verticalAlign=middle;whiteSpace=wrap;rounded=0;fontSize=14;" vertex="1" parent="1">
          <mxGeometry x="320" y="270" width="50" height="20" as="geometry" />
        </mxCell>
        <mxCell id="lyffUTx4l9poD90IlDFy-7" value="Map" style="text;html=1;strokeColor=none;fillColor=none;align=left;verticalAlign=middle;whiteSpace=wrap;rounded=0;fontSize=14;" vertex="1" parent="1">
          <mxGeometry x="480" y="150" width="80" height="20" as="geometry" />
        </mxCell>
        <mxCell id="lyffUTx4l9poD90IlDFy-8" value="SortedMap" style="text;html=1;strokeColor=none;fillColor=none;align=left;verticalAlign=middle;whiteSpace=wrap;rounded=0;fontSize=14;" vertex="1" parent="1">
          <mxGeometry x="520" y="240" width="80" height="20" as="geometry" />
        </mxCell>
        <mxCell id="lyffUTx4l9poD90IlDFy-9" value="NavigableMap" style="text;html=1;strokeColor=none;fillColor=none;align=left;verticalAlign=middle;whiteSpace=wrap;rounded=0;fontSize=14;" vertex="1" parent="1">
          <mxGeometry x="560" y="270" width="80" height="20" as="geometry" />
        </mxCell>
        <mxCell id="lyffUTx4l9poD90IlDFy-10" value="" style="endArrow=none;html=1;rounded=0;exitX=0.25;exitY=1;exitDx=0;exitDy=0;entryX=0;entryY=0.5;entryDx=0;entryDy=0;endFill=0;fontSize=14;" edge="1" parent="1" source="lyffUTx4l9poD90IlDFy-1" target="lyffUTx4l9poD90IlDFy-2">
          <mxGeometry width="50" height="50" relative="1" as="geometry">
            <mxPoint x="410" y="380" as="sourcePoint" />
            <mxPoint x="250" y="160" as="targetPoint" />
            <Array as="points">
              <mxPoint x="260" y="160" />
              <mxPoint x="270" y="160" />
            </Array>
          </mxGeometry>
        </mxCell>
        <mxCell id="lyffUTx4l9poD90IlDFy-11" value="" style="endArrow=none;html=1;rounded=0;exitX=0.25;exitY=1;exitDx=0;exitDy=0;entryX=0;entryY=0.5;entryDx=0;entryDy=0;endFill=0;fontSize=14;" edge="1" parent="1" source="lyffUTx4l9poD90IlDFy-2" target="lyffUTx4l9poD90IlDFy-3">
          <mxGeometry width="50" height="50" relative="1" as="geometry">
            <mxPoint x="270" y="150" as="sourcePoint" />
            <mxPoint x="290" y="170" as="targetPoint" />
            <Array as="points">
              <mxPoint x="300" y="190" />
              <mxPoint x="310" y="190" />
            </Array>
          </mxGeometry>
        </mxCell>
        <mxCell id="lyffUTx4l9poD90IlDFy-12" value="" style="endArrow=none;html=1;rounded=0;exitX=0.25;exitY=1;exitDx=0;exitDy=0;entryX=0;entryY=0.5;entryDx=0;entryDy=0;endFill=0;fontSize=14;" edge="1" parent="1" source="lyffUTx4l9poD90IlDFy-2" target="lyffUTx4l9poD90IlDFy-4">
          <mxGeometry width="50" height="50" relative="1" as="geometry">
            <mxPoint x="310" y="180" as="sourcePoint" />
            <mxPoint x="330" y="200" as="targetPoint" />
            <Array as="points">
              <mxPoint x="300" y="220" />
            </Array>
          </mxGeometry>
        </mxCell>
        <mxCell id="lyffUTx4l9poD90IlDFy-13" value="" style="endArrow=none;html=1;rounded=0;exitX=0.25;exitY=1;exitDx=0;exitDy=0;entryX=0;entryY=0.5;entryDx=0;entryDy=0;endFill=0;fontSize=14;" edge="1" parent="1" source="lyffUTx4l9poD90IlDFy-2">
          <mxGeometry width="50" height="50" relative="1" as="geometry">
            <mxPoint x="300" y="230" as="sourcePoint" />
            <mxPoint x="320" y="280" as="targetPoint" />
            <Array as="points">
              <mxPoint x="300" y="280" />
            </Array>
          </mxGeometry>
        </mxCell>
        <mxCell id="lyffUTx4l9poD90IlDFy-14" value="" style="endArrow=none;html=1;rounded=0;exitX=0.25;exitY=1;exitDx=0;exitDy=0;entryX=0;entryY=0.5;entryDx=0;entryDy=0;endFill=0;fontSize=14;" edge="1" parent="1">
          <mxGeometry width="50" height="50" relative="1" as="geometry">
            <mxPoint x="340" y="230" as="sourcePoint" />
            <mxPoint x="360" y="250" as="targetPoint" />
            <Array as="points">
              <mxPoint x="340" y="250" />
              <mxPoint x="350" y="250" />
            </Array>
          </mxGeometry>
        </mxCell>
        <mxCell id="lyffUTx4l9poD90IlDFy-15" value="" style="endArrow=none;html=1;rounded=0;exitX=0.25;exitY=1;exitDx=0;exitDy=0;entryX=0;entryY=0.5;entryDx=0;entryDy=0;endFill=0;fontSize=14;" edge="1" parent="1">
          <mxGeometry width="50" height="50" relative="1" as="geometry">
            <mxPoint x="540" y="260" as="sourcePoint" />
            <mxPoint x="560" y="280" as="targetPoint" />
            <Array as="points">
              <mxPoint x="540" y="280" />
              <mxPoint x="550" y="280" />
            </Array>
          </mxGeometry>
        </mxCell>
        <mxCell id="lyffUTx4l9poD90IlDFy-16" value="" style="endArrow=none;html=1;rounded=0;exitX=0.25;exitY=1;exitDx=0;exitDy=0;entryX=0;entryY=0.5;entryDx=0;entryDy=0;endFill=0;fontSize=14;" edge="1" parent="1" source="lyffUTx4l9poD90IlDFy-7">
          <mxGeometry width="50" height="50" relative="1" as="geometry">
            <mxPoint x="500" y="230" as="sourcePoint" />
            <mxPoint x="520" y="250" as="targetPoint" />
            <Array as="points">
              <mxPoint x="500" y="250" />
              <mxPoint x="510" y="250" />
            </Array>
          </mxGeometry>
        </mxCell>
        <mxCell id="lyffUTx4l9poD90IlDFy-17" value="" style="endArrow=none;dashed=1;html=1;dashPattern=1 3;strokeWidth=2;rounded=0;exitX=-0.028;exitY=0.422;exitDx=0;exitDy=0;exitPerimeter=0;entryX=1;entryY=0.5;entryDx=0;entryDy=0;fontSize=14;" edge="1" parent="1" source="lyffUTx4l9poD90IlDFy-7" target="lyffUTx4l9poD90IlDFy-2">
          <mxGeometry width="50" height="50" relative="1" as="geometry">
            <mxPoint x="380" y="340" as="sourcePoint" />
            <mxPoint x="420" y="160" as="targetPoint" />
          </mxGeometry>
        </mxCell>
        <mxCell id="lyffUTx4l9poD90IlDFy-19" value="" style="endArrow=none;dashed=1;html=1;dashPattern=1 3;strokeWidth=2;rounded=0;exitX=-0.028;exitY=0.422;exitDx=0;exitDy=0;exitPerimeter=0;entryX=1;entryY=0.5;entryDx=0;entryDy=0;fontSize=14;" edge="1" parent="1" target="lyffUTx4l9poD90IlDFy-6">
          <mxGeometry width="50" height="50" relative="1" as="geometry">
            <mxPoint x="560" y="279" as="sourcePoint" />
            <mxPoint x="442" y="281" as="targetPoint" />
          </mxGeometry>
        </mxCell>
      </root>
    </mxGraphModel>
  </diagram>
  <diagram id="5bxIHGmnaDPyXQT4GfgG" name="페이지-2">
    <mxGraphModel dx="1526" dy="773" grid="1" gridSize="10" guides="1" tooltips="1" connect="1" arrows="1" fold="1" page="1" pageScale="1" pageWidth="1169" pageHeight="827" math="0" shadow="0">
      <root>
        <mxCell id="0" />
        <mxCell id="1" parent="0" />
        <mxCell id="GoyPZ5eATjMNAqls0MX9-1" value="Rad" style="text;html=1;strokeColor=#6c8ebf;fillColor=#dae8fc;align=center;verticalAlign=middle;whiteSpace=wrap;rounded=0;" vertex="1" parent="1">
          <mxGeometry x="220" y="80" width="60" height="20" as="geometry" />
        </mxCell>
        <mxCell id="GoyPZ5eATjMNAqls0MX9-2" value="Uhr" style="text;html=1;strokeColor=#6c8ebf;fillColor=#dae8fc;align=center;verticalAlign=middle;whiteSpace=wrap;rounded=0;" vertex="1" parent="1">
          <mxGeometry x="220" y="160" width="60" height="20" as="geometry" />
        </mxCell>
        <mxCell id="GoyPZ5eATjMNAqls0MX9-3" value="Ohr" style="text;html=1;strokeColor=#6c8ebf;fillColor=#dae8fc;align=center;verticalAlign=middle;whiteSpace=wrap;rounded=0;" vertex="1" parent="1">
          <mxGeometry x="220" y="120" width="60" height="20" as="geometry" />
        </mxCell>
        <mxCell id="GoyPZ5eATjMNAqls0MX9-4" value="Tor" style="text;html=1;strokeColor=#6c8ebf;fillColor=#dae8fc;align=center;verticalAlign=middle;whiteSpace=wrap;rounded=0;" vertex="1" parent="1">
          <mxGeometry x="220" y="200" width="60" height="20" as="geometry" />
        </mxCell>
        <mxCell id="GoyPZ5eATjMNAqls0MX9-5" value="Hut" style="text;html=1;strokeColor=#6c8ebf;fillColor=#dae8fc;align=center;verticalAlign=middle;whiteSpace=wrap;rounded=0;" vertex="1" parent="1">
          <mxGeometry x="220" y="240" width="60" height="20" as="geometry" />
        </mxCell>
        <mxCell id="GoyPZ5eATjMNAqls0MX9-6" value="Tag" style="text;html=1;strokeColor=#6c8ebf;fillColor=#dae8fc;align=center;verticalAlign=middle;whiteSpace=wrap;rounded=0;" vertex="1" parent="1">
          <mxGeometry x="220" y="280" width="60" height="20" as="geometry" />
        </mxCell>
        <mxCell id="GoyPZ5eATjMNAqls0MX9-7" value="1" style="rounded=0;whiteSpace=wrap;html=1;" vertex="1" parent="1">
          <mxGeometry x="440" y="100" width="40" height="20" as="geometry" />
        </mxCell>
        <mxCell id="GoyPZ5eATjMNAqls0MX9-8" value="0" style="rounded=0;whiteSpace=wrap;html=1;" vertex="1" parent="1">
          <mxGeometry x="440" y="80" width="40" height="20" as="geometry" />
        </mxCell>
        <mxCell id="GoyPZ5eATjMNAqls0MX9-9" value="3" style="rounded=0;whiteSpace=wrap;html=1;" vertex="1" parent="1">
          <mxGeometry x="440" y="140" width="40" height="20" as="geometry" />
        </mxCell>
        <mxCell id="GoyPZ5eATjMNAqls0MX9-10" value="2" style="rounded=0;whiteSpace=wrap;html=1;" vertex="1" parent="1">
          <mxGeometry x="440" y="120" width="40" height="20" as="geometry" />
        </mxCell>
        <mxCell id="GoyPZ5eATjMNAqls0MX9-11" value="5" style="rounded=0;whiteSpace=wrap;html=1;" vertex="1" parent="1">
          <mxGeometry x="440" y="180" width="40" height="20" as="geometry" />
        </mxCell>
        <mxCell id="GoyPZ5eATjMNAqls0MX9-12" value="4" style="rounded=0;whiteSpace=wrap;html=1;" vertex="1" parent="1">
          <mxGeometry x="440" y="160" width="40" height="20" as="geometry" />
        </mxCell>
        <mxCell id="GoyPZ5eATjMNAqls0MX9-13" value="7" style="rounded=0;whiteSpace=wrap;html=1;" vertex="1" parent="1">
          <mxGeometry x="440" y="220" width="40" height="20" as="geometry" />
        </mxCell>
        <mxCell id="GoyPZ5eATjMNAqls0MX9-14" value="6" style="rounded=0;whiteSpace=wrap;html=1;" vertex="1" parent="1">
          <mxGeometry x="440" y="200" width="40" height="20" as="geometry" />
        </mxCell>
        <mxCell id="GoyPZ5eATjMNAqls0MX9-15" value="9" style="rounded=0;whiteSpace=wrap;html=1;" vertex="1" parent="1">
          <mxGeometry x="440" y="260" width="40" height="20" as="geometry" />
        </mxCell>
        <mxCell id="GoyPZ5eATjMNAqls0MX9-16" value="8" style="rounded=0;whiteSpace=wrap;html=1;" vertex="1" parent="1">
          <mxGeometry x="440" y="240" width="40" height="20" as="geometry" />
        </mxCell>
        <mxCell id="GoyPZ5eATjMNAqls0MX9-18" value="10" style="rounded=0;whiteSpace=wrap;html=1;" vertex="1" parent="1">
          <mxGeometry x="440" y="280" width="40" height="20" as="geometry" />
        </mxCell>
        <mxCell id="GoyPZ5eATjMNAqls0MX9-23" value="" style="rounded=1;whiteSpace=wrap;html=1;fillColor=#d5e8d4;strokeColor=#82b366;" vertex="1" parent="1">
          <mxGeometry x="320" y="70" width="80" height="240" as="geometry" />
        </mxCell>
        <mxCell id="GoyPZ5eATjMNAqls0MX9-24" value="" style="endArrow=none;html=1;rounded=0;exitX=1;exitY=0.5;exitDx=0;exitDy=0;entryX=0;entryY=0.5;entryDx=0;entryDy=0;" edge="1" parent="1" source="GoyPZ5eATjMNAqls0MX9-1" target="GoyPZ5eATjMNAqls0MX9-9">
          <mxGeometry width="50" height="50" relative="1" as="geometry">
            <mxPoint x="320" y="70" as="sourcePoint" />
            <mxPoint x="370" y="20" as="targetPoint" />
            <Array as="points">
              <mxPoint x="330" y="90" />
              <mxPoint x="390" y="150" />
            </Array>
          </mxGeometry>
        </mxCell>
        <mxCell id="GoyPZ5eATjMNAqls0MX9-25" value="" style="endArrow=none;html=1;rounded=0;exitX=1;exitY=0.5;exitDx=0;exitDy=0;entryX=0;entryY=0.5;entryDx=0;entryDy=0;" edge="1" parent="1" source="GoyPZ5eATjMNAqls0MX9-3" target="GoyPZ5eATjMNAqls0MX9-12">
          <mxGeometry width="50" height="50" relative="1" as="geometry">
            <mxPoint x="310" y="105" as="sourcePoint" />
            <mxPoint x="450" y="160" as="targetPoint" />
            <Array as="points">
              <mxPoint x="330" y="130" />
              <mxPoint x="390" y="170" />
            </Array>
          </mxGeometry>
        </mxCell>
        <mxCell id="GoyPZ5eATjMNAqls0MX9-26" value="" style="endArrow=none;html=1;rounded=0;exitX=1;exitY=0.5;exitDx=0;exitDy=0;entryX=0;entryY=0.5;entryDx=0;entryDy=0;" edge="1" parent="1" source="GoyPZ5eATjMNAqls0MX9-2" target="GoyPZ5eATjMNAqls0MX9-10">
          <mxGeometry width="50" height="50" relative="1" as="geometry">
            <mxPoint x="320" y="115" as="sourcePoint" />
            <mxPoint x="460" y="170" as="targetPoint" />
            <Array as="points">
              <mxPoint x="330" y="170" />
              <mxPoint x="390" y="130" />
            </Array>
          </mxGeometry>
        </mxCell>
        <mxCell id="GoyPZ5eATjMNAqls0MX9-27" value="" style="endArrow=none;html=1;rounded=0;exitX=1;exitY=0.5;exitDx=0;exitDy=0;entryX=0;entryY=0.5;entryDx=0;entryDy=0;" edge="1" parent="1" source="GoyPZ5eATjMNAqls0MX9-4" target="GoyPZ5eATjMNAqls0MX9-16">
          <mxGeometry width="50" height="50" relative="1" as="geometry">
            <mxPoint x="330" y="125" as="sourcePoint" />
            <mxPoint x="470" y="180" as="targetPoint" />
            <Array as="points">
              <mxPoint x="330" y="210" />
              <mxPoint x="390" y="250" />
            </Array>
          </mxGeometry>
        </mxCell>
        <mxCell id="GoyPZ5eATjMNAqls0MX9-28" value="" style="endArrow=none;html=1;rounded=0;exitX=1;exitY=0.5;exitDx=0;exitDy=0;entryX=0;entryY=0.5;entryDx=0;entryDy=0;" edge="1" parent="1" source="GoyPZ5eATjMNAqls0MX9-5" target="GoyPZ5eATjMNAqls0MX9-11">
          <mxGeometry width="50" height="50" relative="1" as="geometry">
            <mxPoint x="340" y="135" as="sourcePoint" />
            <mxPoint x="480" y="190" as="targetPoint" />
            <Array as="points">
              <mxPoint x="330" y="250" />
              <mxPoint x="390" y="190" />
            </Array>
          </mxGeometry>
        </mxCell>
        <mxCell id="GoyPZ5eATjMNAqls0MX9-29" value="" style="endArrow=none;html=1;rounded=0;exitX=1;exitY=0.5;exitDx=0;exitDy=0;entryX=0;entryY=0.5;entryDx=0;entryDy=0;" edge="1" parent="1" source="GoyPZ5eATjMNAqls0MX9-6" target="GoyPZ5eATjMNAqls0MX9-9">
          <mxGeometry width="50" height="50" relative="1" as="geometry">
            <mxPoint x="350" y="145" as="sourcePoint" />
            <mxPoint x="490" y="200" as="targetPoint" />
            <Array as="points">
              <mxPoint x="330" y="290" />
              <mxPoint x="390" y="150" />
            </Array>
          </mxGeometry>
        </mxCell>
      </root>
    </mxGraphModel>
  </diagram>
  <diagram id="W3aWi5c7_IBJkox6RNrc" name="페이지-3">
    <mxGraphModel dx="1005" dy="509" grid="1" gridSize="10" guides="1" tooltips="1" connect="1" arrows="1" fold="1" page="1" pageScale="1" pageWidth="1169" pageHeight="827" math="0" shadow="0">
      <root>
        <mxCell id="0" />
        <mxCell id="1" parent="0" />
        <mxCell id="DKjszKsrpfBeuiCnVVl6-1" value="Rad" style="text;html=1;strokeColor=#6c8ebf;fillColor=#dae8fc;align=center;verticalAlign=middle;whiteSpace=wrap;rounded=0;" vertex="1" parent="1">
          <mxGeometry x="40" y="80" width="60" height="20" as="geometry" />
        </mxCell>
        <mxCell id="DKjszKsrpfBeuiCnVVl6-2" value="Uhr" style="text;html=1;strokeColor=#6c8ebf;fillColor=#dae8fc;align=center;verticalAlign=middle;whiteSpace=wrap;rounded=0;" vertex="1" parent="1">
          <mxGeometry x="40" y="160" width="60" height="20" as="geometry" />
        </mxCell>
        <mxCell id="DKjszKsrpfBeuiCnVVl6-3" value="Ohr" style="text;html=1;strokeColor=#6c8ebf;fillColor=#dae8fc;align=center;verticalAlign=middle;whiteSpace=wrap;rounded=0;" vertex="1" parent="1">
          <mxGeometry x="40" y="120" width="60" height="20" as="geometry" />
        </mxCell>
        <mxCell id="DKjszKsrpfBeuiCnVVl6-4" value="Tor" style="text;html=1;strokeColor=#6c8ebf;fillColor=#dae8fc;align=center;verticalAlign=middle;whiteSpace=wrap;rounded=0;" vertex="1" parent="1">
          <mxGeometry x="40" y="200" width="60" height="20" as="geometry" />
        </mxCell>
        <mxCell id="DKjszKsrpfBeuiCnVVl6-5" value="Hut" style="text;html=1;strokeColor=#6c8ebf;fillColor=#dae8fc;align=center;verticalAlign=middle;whiteSpace=wrap;rounded=0;" vertex="1" parent="1">
          <mxGeometry x="40" y="240" width="60" height="20" as="geometry" />
        </mxCell>
        <mxCell id="DKjszKsrpfBeuiCnVVl6-6" value="Tag" style="text;html=1;strokeColor=#6c8ebf;fillColor=#dae8fc;align=center;verticalAlign=middle;whiteSpace=wrap;rounded=0;" vertex="1" parent="1">
          <mxGeometry x="40" y="280" width="60" height="20" as="geometry" />
        </mxCell>
        <mxCell id="DKjszKsrpfBeuiCnVVl6-7" value="1" style="rounded=0;whiteSpace=wrap;html=1;" vertex="1" parent="1">
          <mxGeometry x="260" y="100" width="40" height="20" as="geometry" />
        </mxCell>
        <mxCell id="DKjszKsrpfBeuiCnVVl6-8" value="0" style="rounded=0;whiteSpace=wrap;html=1;" vertex="1" parent="1">
          <mxGeometry x="260" y="80" width="40" height="20" as="geometry" />
        </mxCell>
        <mxCell id="DKjszKsrpfBeuiCnVVl6-9" value="3" style="rounded=0;whiteSpace=wrap;html=1;" vertex="1" parent="1">
          <mxGeometry x="260" y="140" width="40" height="20" as="geometry" />
        </mxCell>
        <mxCell id="DKjszKsrpfBeuiCnVVl6-10" value="2" style="rounded=0;whiteSpace=wrap;html=1;" vertex="1" parent="1">
          <mxGeometry x="260" y="120" width="40" height="20" as="geometry" />
        </mxCell>
        <mxCell id="DKjszKsrpfBeuiCnVVl6-11" value="5" style="rounded=0;whiteSpace=wrap;html=1;" vertex="1" parent="1">
          <mxGeometry x="260" y="180" width="40" height="20" as="geometry" />
        </mxCell>
        <mxCell id="DKjszKsrpfBeuiCnVVl6-12" value="4" style="rounded=0;whiteSpace=wrap;html=1;" vertex="1" parent="1">
          <mxGeometry x="260" y="160" width="40" height="20" as="geometry" />
        </mxCell>
        <mxCell id="DKjszKsrpfBeuiCnVVl6-13" value="7" style="rounded=0;whiteSpace=wrap;html=1;" vertex="1" parent="1">
          <mxGeometry x="260" y="220" width="40" height="20" as="geometry" />
        </mxCell>
        <mxCell id="DKjszKsrpfBeuiCnVVl6-14" value="6" style="rounded=0;whiteSpace=wrap;html=1;" vertex="1" parent="1">
          <mxGeometry x="260" y="200" width="40" height="20" as="geometry" />
        </mxCell>
        <mxCell id="DKjszKsrpfBeuiCnVVl6-15" value="9" style="rounded=0;whiteSpace=wrap;html=1;" vertex="1" parent="1">
          <mxGeometry x="260" y="260" width="40" height="20" as="geometry" />
        </mxCell>
        <mxCell id="DKjszKsrpfBeuiCnVVl6-16" value="8" style="rounded=0;whiteSpace=wrap;html=1;" vertex="1" parent="1">
          <mxGeometry x="260" y="240" width="40" height="20" as="geometry" />
        </mxCell>
        <mxCell id="DKjszKsrpfBeuiCnVVl6-17" value="10" style="rounded=0;whiteSpace=wrap;html=1;" vertex="1" parent="1">
          <mxGeometry x="260" y="280" width="40" height="20" as="geometry" />
        </mxCell>
        <mxCell id="DKjszKsrpfBeuiCnVVl6-18" value="" style="rounded=1;whiteSpace=wrap;html=1;fillColor=#d5e8d4;strokeColor=#82b366;" vertex="1" parent="1">
          <mxGeometry x="140" y="70" width="80" height="240" as="geometry" />
        </mxCell>
        <mxCell id="DKjszKsrpfBeuiCnVVl6-19" value="" style="endArrow=none;html=1;rounded=0;exitX=1;exitY=0.5;exitDx=0;exitDy=0;entryX=0;entryY=0.5;entryDx=0;entryDy=0;" edge="1" parent="1" source="DKjszKsrpfBeuiCnVVl6-1" target="DKjszKsrpfBeuiCnVVl6-9">
          <mxGeometry width="50" height="50" relative="1" as="geometry">
            <mxPoint x="140" y="70" as="sourcePoint" />
            <mxPoint x="190" y="20" as="targetPoint" />
            <Array as="points">
              <mxPoint x="150" y="90" />
              <mxPoint x="210" y="150" />
            </Array>
          </mxGeometry>
        </mxCell>
        <mxCell id="DKjszKsrpfBeuiCnVVl6-20" value="" style="endArrow=none;html=1;rounded=0;exitX=1;exitY=0.5;exitDx=0;exitDy=0;entryX=0;entryY=0.5;entryDx=0;entryDy=0;" edge="1" parent="1" source="DKjszKsrpfBeuiCnVVl6-3" target="DKjszKsrpfBeuiCnVVl6-12">
          <mxGeometry width="50" height="50" relative="1" as="geometry">
            <mxPoint x="130" y="105" as="sourcePoint" />
            <mxPoint x="270" y="160" as="targetPoint" />
            <Array as="points">
              <mxPoint x="150" y="130" />
              <mxPoint x="210" y="170" />
            </Array>
          </mxGeometry>
        </mxCell>
        <mxCell id="DKjszKsrpfBeuiCnVVl6-21" value="" style="endArrow=none;html=1;rounded=0;exitX=1;exitY=0.5;exitDx=0;exitDy=0;entryX=0;entryY=0.5;entryDx=0;entryDy=0;" edge="1" parent="1" source="DKjszKsrpfBeuiCnVVl6-2" target="DKjszKsrpfBeuiCnVVl6-10">
          <mxGeometry width="50" height="50" relative="1" as="geometry">
            <mxPoint x="140" y="115" as="sourcePoint" />
            <mxPoint x="280" y="170" as="targetPoint" />
            <Array as="points">
              <mxPoint x="150" y="170" />
              <mxPoint x="210" y="130" />
            </Array>
          </mxGeometry>
        </mxCell>
        <mxCell id="DKjszKsrpfBeuiCnVVl6-22" value="" style="endArrow=none;html=1;rounded=0;exitX=1;exitY=0.5;exitDx=0;exitDy=0;entryX=0;entryY=0.5;entryDx=0;entryDy=0;" edge="1" parent="1" source="DKjszKsrpfBeuiCnVVl6-4" target="DKjszKsrpfBeuiCnVVl6-16">
          <mxGeometry width="50" height="50" relative="1" as="geometry">
            <mxPoint x="150" y="125" as="sourcePoint" />
            <mxPoint x="290" y="180" as="targetPoint" />
            <Array as="points">
              <mxPoint x="150" y="210" />
              <mxPoint x="210" y="250" />
            </Array>
          </mxGeometry>
        </mxCell>
        <mxCell id="DKjszKsrpfBeuiCnVVl6-23" value="" style="endArrow=none;html=1;rounded=0;exitX=1;exitY=0.5;exitDx=0;exitDy=0;entryX=0;entryY=0.5;entryDx=0;entryDy=0;" edge="1" parent="1" source="DKjszKsrpfBeuiCnVVl6-5" target="DKjszKsrpfBeuiCnVVl6-11">
          <mxGeometry width="50" height="50" relative="1" as="geometry">
            <mxPoint x="160" y="135" as="sourcePoint" />
            <mxPoint x="300" y="190" as="targetPoint" />
            <Array as="points">
              <mxPoint x="150" y="250" />
              <mxPoint x="210" y="190" />
            </Array>
          </mxGeometry>
        </mxCell>
        <mxCell id="DKjszKsrpfBeuiCnVVl6-25" value="Rad" style="text;html=1;strokeColor=#6c8ebf;fillColor=#dae8fc;align=center;verticalAlign=middle;whiteSpace=wrap;rounded=0;" vertex="1" parent="1">
          <mxGeometry x="400" y="80" width="60" height="20" as="geometry" />
        </mxCell>
        <mxCell id="DKjszKsrpfBeuiCnVVl6-26" value="Uhr" style="text;html=1;strokeColor=#6c8ebf;fillColor=#dae8fc;align=center;verticalAlign=middle;whiteSpace=wrap;rounded=0;" vertex="1" parent="1">
          <mxGeometry x="400" y="160" width="60" height="20" as="geometry" />
        </mxCell>
        <mxCell id="DKjszKsrpfBeuiCnVVl6-27" value="Ohr" style="text;html=1;strokeColor=#6c8ebf;fillColor=#dae8fc;align=center;verticalAlign=middle;whiteSpace=wrap;rounded=0;" vertex="1" parent="1">
          <mxGeometry x="400" y="120" width="60" height="20" as="geometry" />
        </mxCell>
        <mxCell id="DKjszKsrpfBeuiCnVVl6-28" value="Tor" style="text;html=1;strokeColor=#6c8ebf;fillColor=#dae8fc;align=center;verticalAlign=middle;whiteSpace=wrap;rounded=0;" vertex="1" parent="1">
          <mxGeometry x="400" y="200" width="60" height="20" as="geometry" />
        </mxCell>
        <mxCell id="DKjszKsrpfBeuiCnVVl6-29" value="Hut" style="text;html=1;strokeColor=#6c8ebf;fillColor=#dae8fc;align=center;verticalAlign=middle;whiteSpace=wrap;rounded=0;" vertex="1" parent="1">
          <mxGeometry x="400" y="240" width="60" height="20" as="geometry" />
        </mxCell>
        <mxCell id="DKjszKsrpfBeuiCnVVl6-30" value="Tag" style="text;html=1;strokeColor=#6c8ebf;fillColor=#dae8fc;align=center;verticalAlign=middle;whiteSpace=wrap;rounded=0;" vertex="1" parent="1">
          <mxGeometry x="400" y="280" width="60" height="20" as="geometry" />
        </mxCell>
        <mxCell id="DKjszKsrpfBeuiCnVVl6-31" value="1" style="rounded=0;whiteSpace=wrap;html=1;" vertex="1" parent="1">
          <mxGeometry x="620" y="100" width="40" height="20" as="geometry" />
        </mxCell>
        <mxCell id="DKjszKsrpfBeuiCnVVl6-32" value="0" style="rounded=0;whiteSpace=wrap;html=1;" vertex="1" parent="1">
          <mxGeometry x="620" y="80" width="40" height="20" as="geometry" />
        </mxCell>
        <mxCell id="DKjszKsrpfBeuiCnVVl6-33" value="3" style="rounded=0;whiteSpace=wrap;html=1;" vertex="1" parent="1">
          <mxGeometry x="620" y="140" width="40" height="20" as="geometry" />
        </mxCell>
        <mxCell id="DKjszKsrpfBeuiCnVVl6-34" value="2" style="rounded=0;whiteSpace=wrap;html=1;" vertex="1" parent="1">
          <mxGeometry x="620" y="120" width="40" height="20" as="geometry" />
        </mxCell>
        <mxCell id="DKjszKsrpfBeuiCnVVl6-35" value="5" style="rounded=0;whiteSpace=wrap;html=1;" vertex="1" parent="1">
          <mxGeometry x="620" y="180" width="40" height="20" as="geometry" />
        </mxCell>
        <mxCell id="DKjszKsrpfBeuiCnVVl6-36" value="4" style="rounded=0;whiteSpace=wrap;html=1;" vertex="1" parent="1">
          <mxGeometry x="620" y="160" width="40" height="20" as="geometry" />
        </mxCell>
        <mxCell id="DKjszKsrpfBeuiCnVVl6-37" value="7" style="rounded=0;whiteSpace=wrap;html=1;" vertex="1" parent="1">
          <mxGeometry x="620" y="220" width="40" height="20" as="geometry" />
        </mxCell>
        <mxCell id="DKjszKsrpfBeuiCnVVl6-38" value="6" style="rounded=0;whiteSpace=wrap;html=1;" vertex="1" parent="1">
          <mxGeometry x="620" y="200" width="40" height="20" as="geometry" />
        </mxCell>
        <mxCell id="DKjszKsrpfBeuiCnVVl6-39" value="9" style="rounded=0;whiteSpace=wrap;html=1;" vertex="1" parent="1">
          <mxGeometry x="620" y="260" width="40" height="20" as="geometry" />
        </mxCell>
        <mxCell id="DKjszKsrpfBeuiCnVVl6-40" value="8" style="rounded=0;whiteSpace=wrap;html=1;" vertex="1" parent="1">
          <mxGeometry x="620" y="240" width="40" height="20" as="geometry" />
        </mxCell>
        <mxCell id="DKjszKsrpfBeuiCnVVl6-41" value="10" style="rounded=0;whiteSpace=wrap;html=1;" vertex="1" parent="1">
          <mxGeometry x="620" y="280" width="40" height="20" as="geometry" />
        </mxCell>
        <mxCell id="DKjszKsrpfBeuiCnVVl6-42" value="" style="rounded=1;whiteSpace=wrap;html=1;fillColor=#d5e8d4;strokeColor=#82b366;" vertex="1" parent="1">
          <mxGeometry x="500" y="70" width="80" height="240" as="geometry" />
        </mxCell>
        <mxCell id="DKjszKsrpfBeuiCnVVl6-43" value="" style="endArrow=none;html=1;rounded=0;exitX=1;exitY=0.5;exitDx=0;exitDy=0;entryX=0;entryY=0.5;entryDx=0;entryDy=0;" edge="1" parent="1" source="DKjszKsrpfBeuiCnVVl6-25" target="DKjszKsrpfBeuiCnVVl6-33">
          <mxGeometry width="50" height="50" relative="1" as="geometry">
            <mxPoint x="500" y="70" as="sourcePoint" />
            <mxPoint x="550" y="20" as="targetPoint" />
            <Array as="points">
              <mxPoint x="510" y="90" />
              <mxPoint x="570" y="150" />
            </Array>
          </mxGeometry>
        </mxCell>
        <mxCell id="DKjszKsrpfBeuiCnVVl6-44" value="" style="endArrow=none;html=1;rounded=0;exitX=1;exitY=0.5;exitDx=0;exitDy=0;entryX=0;entryY=0.5;entryDx=0;entryDy=0;" edge="1" parent="1" source="DKjszKsrpfBeuiCnVVl6-27" target="DKjszKsrpfBeuiCnVVl6-36">
          <mxGeometry width="50" height="50" relative="1" as="geometry">
            <mxPoint x="490" y="105" as="sourcePoint" />
            <mxPoint x="630" y="160" as="targetPoint" />
            <Array as="points">
              <mxPoint x="510" y="130" />
              <mxPoint x="570" y="170" />
            </Array>
          </mxGeometry>
        </mxCell>
        <mxCell id="DKjszKsrpfBeuiCnVVl6-45" value="" style="endArrow=none;html=1;rounded=0;exitX=1;exitY=0.5;exitDx=0;exitDy=0;entryX=0;entryY=0.5;entryDx=0;entryDy=0;" edge="1" parent="1" source="DKjszKsrpfBeuiCnVVl6-26" target="DKjszKsrpfBeuiCnVVl6-34">
          <mxGeometry width="50" height="50" relative="1" as="geometry">
            <mxPoint x="500" y="115" as="sourcePoint" />
            <mxPoint x="640" y="170" as="targetPoint" />
            <Array as="points">
              <mxPoint x="510" y="170" />
              <mxPoint x="570" y="130" />
            </Array>
          </mxGeometry>
        </mxCell>
        <mxCell id="DKjszKsrpfBeuiCnVVl6-46" value="" style="endArrow=none;html=1;rounded=0;exitX=1;exitY=0.5;exitDx=0;exitDy=0;entryX=0;entryY=0.5;entryDx=0;entryDy=0;" edge="1" parent="1" source="DKjszKsrpfBeuiCnVVl6-28" target="DKjszKsrpfBeuiCnVVl6-40">
          <mxGeometry width="50" height="50" relative="1" as="geometry">
            <mxPoint x="510" y="125" as="sourcePoint" />
            <mxPoint x="650" y="180" as="targetPoint" />
            <Array as="points">
              <mxPoint x="510" y="210" />
              <mxPoint x="570" y="250" />
            </Array>
          </mxGeometry>
        </mxCell>
        <mxCell id="DKjszKsrpfBeuiCnVVl6-47" value="" style="endArrow=none;html=1;rounded=0;exitX=1;exitY=0.5;exitDx=0;exitDy=0;entryX=0;entryY=0.5;entryDx=0;entryDy=0;" edge="1" parent="1" source="DKjszKsrpfBeuiCnVVl6-29" target="DKjszKsrpfBeuiCnVVl6-35">
          <mxGeometry width="50" height="50" relative="1" as="geometry">
            <mxPoint x="520" y="135" as="sourcePoint" />
            <mxPoint x="660" y="190" as="targetPoint" />
            <Array as="points">
              <mxPoint x="510" y="250" />
              <mxPoint x="570" y="190" />
            </Array>
          </mxGeometry>
        </mxCell>
        <mxCell id="DKjszKsrpfBeuiCnVVl6-49" value="" style="endArrow=none;html=1;rounded=0;exitX=1;exitY=0.5;exitDx=0;exitDy=0;entryX=0;entryY=0.5;entryDx=0;entryDy=0;strokeColor=#FF3333;strokeWidth=3;" edge="1" parent="1" source="DKjszKsrpfBeuiCnVVl6-30" target="DKjszKsrpfBeuiCnVVl6-36">
          <mxGeometry width="50" height="50" relative="1" as="geometry">
            <mxPoint x="550" y="370" as="sourcePoint" />
            <mxPoint x="600" y="320" as="targetPoint" />
            <Array as="points">
              <mxPoint x="510" y="290" />
              <mxPoint x="570" y="170" />
            </Array>
          </mxGeometry>
        </mxCell>
        <mxCell id="DKjszKsrpfBeuiCnVVl6-50" value="Rad" style="text;html=1;strokeColor=#6c8ebf;fillColor=#dae8fc;align=center;verticalAlign=middle;whiteSpace=wrap;rounded=0;" vertex="1" parent="1">
          <mxGeometry x="760" y="80" width="60" height="20" as="geometry" />
        </mxCell>
        <mxCell id="DKjszKsrpfBeuiCnVVl6-51" value="Uhr" style="text;html=1;strokeColor=#6c8ebf;fillColor=#dae8fc;align=center;verticalAlign=middle;whiteSpace=wrap;rounded=0;" vertex="1" parent="1">
          <mxGeometry x="760" y="160" width="60" height="20" as="geometry" />
        </mxCell>
        <mxCell id="DKjszKsrpfBeuiCnVVl6-52" value="Ohr" style="text;html=1;strokeColor=#6c8ebf;fillColor=#dae8fc;align=center;verticalAlign=middle;whiteSpace=wrap;rounded=0;" vertex="1" parent="1">
          <mxGeometry x="760" y="120" width="60" height="20" as="geometry" />
        </mxCell>
        <mxCell id="DKjszKsrpfBeuiCnVVl6-53" value="Tor" style="text;html=1;strokeColor=#6c8ebf;fillColor=#dae8fc;align=center;verticalAlign=middle;whiteSpace=wrap;rounded=0;" vertex="1" parent="1">
          <mxGeometry x="760" y="200" width="60" height="20" as="geometry" />
        </mxCell>
        <mxCell id="DKjszKsrpfBeuiCnVVl6-54" value="Hut" style="text;html=1;strokeColor=#6c8ebf;fillColor=#dae8fc;align=center;verticalAlign=middle;whiteSpace=wrap;rounded=0;" vertex="1" parent="1">
          <mxGeometry x="760" y="240" width="60" height="20" as="geometry" />
        </mxCell>
        <mxCell id="DKjszKsrpfBeuiCnVVl6-55" value="Tag" style="text;html=1;strokeColor=#6c8ebf;fillColor=#dae8fc;align=center;verticalAlign=middle;whiteSpace=wrap;rounded=0;" vertex="1" parent="1">
          <mxGeometry x="760" y="280" width="60" height="20" as="geometry" />
        </mxCell>
        <mxCell id="DKjszKsrpfBeuiCnVVl6-56" value="1" style="rounded=0;whiteSpace=wrap;html=1;" vertex="1" parent="1">
          <mxGeometry x="980" y="100" width="40" height="20" as="geometry" />
        </mxCell>
        <mxCell id="DKjszKsrpfBeuiCnVVl6-57" value="0" style="rounded=0;whiteSpace=wrap;html=1;" vertex="1" parent="1">
          <mxGeometry x="980" y="80" width="40" height="20" as="geometry" />
        </mxCell>
        <mxCell id="DKjszKsrpfBeuiCnVVl6-58" value="3" style="rounded=0;whiteSpace=wrap;html=1;" vertex="1" parent="1">
          <mxGeometry x="980" y="140" width="40" height="20" as="geometry" />
        </mxCell>
        <mxCell id="DKjszKsrpfBeuiCnVVl6-59" value="2" style="rounded=0;whiteSpace=wrap;html=1;" vertex="1" parent="1">
          <mxGeometry x="980" y="120" width="40" height="20" as="geometry" />
        </mxCell>
        <mxCell id="DKjszKsrpfBeuiCnVVl6-60" value="5" style="rounded=0;whiteSpace=wrap;html=1;" vertex="1" parent="1">
          <mxGeometry x="980" y="180" width="40" height="20" as="geometry" />
        </mxCell>
        <mxCell id="DKjszKsrpfBeuiCnVVl6-61" value="4" style="rounded=0;whiteSpace=wrap;html=1;" vertex="1" parent="1">
          <mxGeometry x="980" y="160" width="40" height="20" as="geometry" />
        </mxCell>
        <mxCell id="DKjszKsrpfBeuiCnVVl6-62" value="7" style="rounded=0;whiteSpace=wrap;html=1;" vertex="1" parent="1">
          <mxGeometry x="980" y="220" width="40" height="20" as="geometry" />
        </mxCell>
        <mxCell id="DKjszKsrpfBeuiCnVVl6-63" value="6" style="rounded=0;whiteSpace=wrap;html=1;" vertex="1" parent="1">
          <mxGeometry x="980" y="200" width="40" height="20" as="geometry" />
        </mxCell>
        <mxCell id="DKjszKsrpfBeuiCnVVl6-64" value="9" style="rounded=0;whiteSpace=wrap;html=1;" vertex="1" parent="1">
          <mxGeometry x="980" y="260" width="40" height="20" as="geometry" />
        </mxCell>
        <mxCell id="DKjszKsrpfBeuiCnVVl6-65" value="8" style="rounded=0;whiteSpace=wrap;html=1;" vertex="1" parent="1">
          <mxGeometry x="980" y="240" width="40" height="20" as="geometry" />
        </mxCell>
        <mxCell id="DKjszKsrpfBeuiCnVVl6-66" value="10" style="rounded=0;whiteSpace=wrap;html=1;" vertex="1" parent="1">
          <mxGeometry x="980" y="280" width="40" height="20" as="geometry" />
        </mxCell>
        <mxCell id="DKjszKsrpfBeuiCnVVl6-67" value="" style="rounded=1;whiteSpace=wrap;html=1;fillColor=#d5e8d4;strokeColor=#82b366;" vertex="1" parent="1">
          <mxGeometry x="860" y="70" width="80" height="240" as="geometry" />
        </mxCell>
        <mxCell id="DKjszKsrpfBeuiCnVVl6-68" value="" style="endArrow=none;html=1;rounded=0;exitX=1;exitY=0.5;exitDx=0;exitDy=0;entryX=0;entryY=0.5;entryDx=0;entryDy=0;" edge="1" parent="1" source="DKjszKsrpfBeuiCnVVl6-50" target="DKjszKsrpfBeuiCnVVl6-58">
          <mxGeometry width="50" height="50" relative="1" as="geometry">
            <mxPoint x="860" y="70" as="sourcePoint" />
            <mxPoint x="910" y="20" as="targetPoint" />
            <Array as="points">
              <mxPoint x="870" y="90" />
              <mxPoint x="930" y="150" />
            </Array>
          </mxGeometry>
        </mxCell>
        <mxCell id="DKjszKsrpfBeuiCnVVl6-69" value="" style="endArrow=none;html=1;rounded=0;exitX=1;exitY=0.5;exitDx=0;exitDy=0;entryX=0;entryY=0.5;entryDx=0;entryDy=0;" edge="1" parent="1" source="DKjszKsrpfBeuiCnVVl6-52" target="DKjszKsrpfBeuiCnVVl6-61">
          <mxGeometry width="50" height="50" relative="1" as="geometry">
            <mxPoint x="850" y="105" as="sourcePoint" />
            <mxPoint x="990" y="160" as="targetPoint" />
            <Array as="points">
              <mxPoint x="870" y="130" />
              <mxPoint x="930" y="170" />
            </Array>
          </mxGeometry>
        </mxCell>
        <mxCell id="DKjszKsrpfBeuiCnVVl6-70" value="" style="endArrow=none;html=1;rounded=0;exitX=1;exitY=0.5;exitDx=0;exitDy=0;entryX=0;entryY=0.5;entryDx=0;entryDy=0;" edge="1" parent="1" source="DKjszKsrpfBeuiCnVVl6-51" target="DKjszKsrpfBeuiCnVVl6-59">
          <mxGeometry width="50" height="50" relative="1" as="geometry">
            <mxPoint x="860" y="115" as="sourcePoint" />
            <mxPoint x="1000" y="170" as="targetPoint" />
            <Array as="points">
              <mxPoint x="870" y="170" />
              <mxPoint x="930" y="130" />
            </Array>
          </mxGeometry>
        </mxCell>
        <mxCell id="DKjszKsrpfBeuiCnVVl6-71" value="" style="endArrow=none;html=1;rounded=0;exitX=1;exitY=0.5;exitDx=0;exitDy=0;entryX=0;entryY=0.5;entryDx=0;entryDy=0;" edge="1" parent="1" source="DKjszKsrpfBeuiCnVVl6-53" target="DKjszKsrpfBeuiCnVVl6-65">
          <mxGeometry width="50" height="50" relative="1" as="geometry">
            <mxPoint x="870" y="125" as="sourcePoint" />
            <mxPoint x="1010" y="180" as="targetPoint" />
            <Array as="points">
              <mxPoint x="870" y="210" />
              <mxPoint x="930" y="250" />
            </Array>
          </mxGeometry>
        </mxCell>
        <mxCell id="DKjszKsrpfBeuiCnVVl6-72" value="" style="endArrow=none;html=1;rounded=0;exitX=1;exitY=0.5;exitDx=0;exitDy=0;entryX=0;entryY=0.5;entryDx=0;entryDy=0;" edge="1" parent="1" source="DKjszKsrpfBeuiCnVVl6-54" target="DKjszKsrpfBeuiCnVVl6-60">
          <mxGeometry width="50" height="50" relative="1" as="geometry">
            <mxPoint x="880" y="135" as="sourcePoint" />
            <mxPoint x="1020" y="190" as="targetPoint" />
            <Array as="points">
              <mxPoint x="870" y="250" />
              <mxPoint x="930" y="190" />
            </Array>
          </mxGeometry>
        </mxCell>
        <mxCell id="DKjszKsrpfBeuiCnVVl6-73" value="" style="endArrow=none;html=1;rounded=0;exitX=1;exitY=0.5;exitDx=0;exitDy=0;entryX=0;entryY=0.5;entryDx=0;entryDy=0;strokeColor=#000000;strokeWidth=3;" edge="1" parent="1" source="DKjszKsrpfBeuiCnVVl6-55" target="DKjszKsrpfBeuiCnVVl6-63">
          <mxGeometry width="50" height="50" relative="1" as="geometry">
            <mxPoint x="910" y="370" as="sourcePoint" />
            <mxPoint x="960" y="320" as="targetPoint" />
            <Array as="points">
              <mxPoint x="870" y="290" />
              <mxPoint x="930" y="210" />
            </Array>
          </mxGeometry>
        </mxCell>
        <mxCell id="DKjszKsrpfBeuiCnVVl6-74" value="" style="curved=1;endArrow=classic;html=1;rounded=0;exitX=1;exitY=0.5;exitDx=0;exitDy=0;entryX=1;entryY=0.5;entryDx=0;entryDy=0;" edge="1" parent="1" source="DKjszKsrpfBeuiCnVVl6-61" target="DKjszKsrpfBeuiCnVVl6-60">
          <mxGeometry width="50" height="50" relative="1" as="geometry">
            <mxPoint x="1090" y="200" as="sourcePoint" />
            <mxPoint x="1140" y="150" as="targetPoint" />
            <Array as="points">
              <mxPoint x="1040" y="170" />
              <mxPoint x="1040" y="190" />
            </Array>
          </mxGeometry>
        </mxCell>
        <mxCell id="DKjszKsrpfBeuiCnVVl6-75" value="" style="curved=1;endArrow=classic;html=1;rounded=0;exitX=1;exitY=0.5;exitDx=0;exitDy=0;entryX=1;entryY=0.5;entryDx=0;entryDy=0;" edge="1" parent="1">
          <mxGeometry width="50" height="50" relative="1" as="geometry">
            <mxPoint x="1020" y="190" as="sourcePoint" />
            <mxPoint x="1020" y="210" as="targetPoint" />
            <Array as="points">
              <mxPoint x="1040" y="190" />
              <mxPoint x="1040" y="210" />
            </Array>
          </mxGeometry>
        </mxCell>
        <mxCell id="DKjszKsrpfBeuiCnVVl6-76" value="Tag 추가" style="text;html=1;strokeColor=none;fillColor=none;align=center;verticalAlign=middle;whiteSpace=wrap;rounded=0;" vertex="1" parent="1">
          <mxGeometry x="150" y="330" width="60" height="30" as="geometry" />
        </mxCell>
        <mxCell id="DKjszKsrpfBeuiCnVVl6-77" value="Ohr와 충돌" style="text;html=1;strokeColor=none;fillColor=none;align=center;verticalAlign=middle;whiteSpace=wrap;rounded=0;" vertex="1" parent="1">
          <mxGeometry x="510" y="330" width="60" height="30" as="geometry" />
        </mxCell>
        <mxCell id="DKjszKsrpfBeuiCnVVl6-78" value="Linear probing에 따라 6번 할당" style="text;html=1;strokeColor=none;fillColor=none;align=center;verticalAlign=middle;whiteSpace=wrap;rounded=0;" vertex="1" parent="1">
          <mxGeometry x="840" y="330" width="120" height="30" as="geometry" />
        </mxCell>
        <mxCell id="DKjszKsrpfBeuiCnVVl6-79" value="" style="shape=flexArrow;endArrow=classic;html=1;rounded=0;endWidth=36.271186440677965;endSize=9.447457627118643;width=40;fillColor=#fff2cc;strokeColor=#d6b656;" edge="1" parent="1">
          <mxGeometry width="50" height="50" relative="1" as="geometry">
            <mxPoint x="320" y="200" as="sourcePoint" />
            <mxPoint x="390" y="200" as="targetPoint" />
          </mxGeometry>
        </mxCell>
        <mxCell id="DKjszKsrpfBeuiCnVVl6-80" value="" style="shape=flexArrow;endArrow=classic;html=1;rounded=0;endWidth=36.271186440677965;endSize=9.447457627118643;width=40;fillColor=#fff2cc;strokeColor=#d6b656;" edge="1" parent="1">
          <mxGeometry width="50" height="50" relative="1" as="geometry">
            <mxPoint x="680" y="199.51" as="sourcePoint" />
            <mxPoint x="750" y="199.51" as="targetPoint" />
          </mxGeometry>
        </mxCell>
      </root>
    </mxGraphModel>
  </diagram>
</mxfile>
